# xmcd
#
# Track frame offsets:
#	150
#	12098
#	28658
#	48976
#	61919
#	79827
#	97024
#	115235
#	128138
#	143519
#
# Disc length: 2108 seconds
#
# Revision: 0
# Processed by: cddbd v1.5.1PL0 Copyright (c) Steve Scherf et al.
# Submitted via: dBpowerAMP V4.0
#
DISCID=7b083a0a
DTITLE=Johnny Ellis - Treasures In The Attic
DYEAR=2005
DGENRE=Country
TTITLE0=Allis
TTITLE1=adfas
TTITLE2=Treasures In The Attic
TTITLE3=asdf
TTITLE4=asdf
TTITLE5=asdfase
TTITLE6=I'm Gonna Write  A Song For You
TTITLE7=aeae
TTITLE8=eae
TTITLE9=a
EXTD=Johnny Ellis
EXTT0=
EXTT1=
EXTT2=
EXTT3=
EXTT4=
EXTT5=
EXTT6=
EXTT7=
EXTT8=
EXTT9=
PLAYORDER=
